<svg width="174" height="35" viewBox="0 0 174 35" fill="none" xmlns="http://www.w3.org/2000/svg">
<path d="M38.0753 4.81079C34.7379 2.13186 30.0026 0.459015 24.7505 0.459015C16.1217 0.459015 8.88899 4.97395 6.95792 11.0493L9.42476 10.5327C9.53267 10.5102 9.6444 10.5503 9.6894 10.6279C9.7344 10.7054 9.69741 10.7951 9.60208 10.8394C7.63707 11.7593 5.62822 12.8574 3.93511 13.9465C-2.32521 18.0569 -1.2674 22.232 8.19839 19.3885C14.268 17.6649 12.0495 16.127 11.2632 15.4492C11.1999 15.3947 11.1716 15.3305 11.1789 15.2581C11.1861 15.1857 11.2269 15.1255 11.3001 15.0788C11.8443 14.732 13.1938 15.0863 13.9405 15.2255C15.0368 15.4302 16.1316 15.6559 17.2207 15.8842C17.3237 15.9058 17.4243 15.8926 17.5117 15.8459L23.4921 12.6437C23.5798 12.5968 23.6297 12.5296 23.6366 12.4486C23.6438 12.3676 23.6057 12.2958 23.5272 12.2407C22.6505 11.6261 20.1604 10.0297 19.7112 9.74055C19.4881 9.59699 18.7292 9.11845 17.9246 8.60014C17.1105 8.07606 16.2494 7.51133 15.849 7.21326C15.7732 7.15676 15.7385 7.08498 15.7476 7.00484C15.7571 6.9247 15.8082 6.85868 15.896 6.81313C17.0133 6.23428 19.4767 7.26255 20.3842 7.58715C20.5798 7.6572 20.7759 7.72811 20.9715 7.7996C21.7368 8.07952 22.504 8.37067 23.2736 8.66558C23.3803 8.70651 23.4978 8.70421 23.6015 8.65895L24.1625 8.4142C24.434 8.29572 24.784 8.36664 24.9408 8.57189C25.0452 8.70882 25.0384 8.87198 24.9415 9.00084C24.8935 9.06512 24.8832 9.13373 24.9114 9.20465C24.9396 9.27527 24.9983 9.32832 25.0857 9.36176C25.7473 9.61486 26.41 9.86566 27.0735 10.1093C27.2825 10.1859 27.6646 10.3747 27.9411 10.4289C28.0509 10.4506 28.1581 10.433 28.2458 10.3785C29.9568 9.32082 33.3327 7.73964 35.5402 7.49086C36.767 7.35249 38.0082 7.44762 38.3846 8.00774C38.3903 8.01639 38.396 8.02388 38.4029 8.03195C38.8563 8.55834 38.3446 9.41855 37.5727 10.1525C36.1839 11.4734 32.6848 12.8928 30.6176 13.4844C30.5116 13.5146 30.4377 13.576 30.4075 13.6588C30.3316 13.8669 30.3568 14.2114 30.34 14.3866C30.2874 14.9427 30.2432 15.502 30.2024 16.0618C30.197 16.1356 30.2283 16.2005 30.295 16.2544C30.3618 16.3083 30.4457 16.336 30.5437 16.3365C30.7397 16.3377 30.9299 16.4146 31.0348 16.5516C31.1915 16.7568 31.0977 17.0215 30.8262 17.1399L30.2653 17.3847C30.1616 17.4299 30.1002 17.5055 30.0937 17.596C30.035 18.4135 29.9713 19.227 29.8847 20.0267C29.8027 20.7834 29.7493 22.9103 28.5272 23.3519C28.4311 23.3865 28.33 23.3871 28.2336 23.3531C28.1371 23.3191 28.0723 23.2603 28.0456 23.1824C27.7645 22.3643 27.1876 19.8287 27.0816 19.3905C26.9752 18.9517 26.3913 16.5233 26.1256 15.6421C26.1015 15.5628 26.0382 15.5023 25.9421 15.4665C25.846 15.4308 25.7435 15.4296 25.6462 15.4636L18.9866 17.7779C18.8894 17.8116 18.8242 17.8707 18.7971 17.9491C18.5138 18.7762 18.2255 19.6058 17.9117 20.426C17.697 20.9875 17.5628 22.2291 16.8851 22.4029C16.7097 22.4479 16.5198 22.3617 16.4523 22.2311C14.5491 18.5588 10.2873 22.7843 11.7871 24.0187C12.3888 24.514 12.9982 25.0101 13.6125 25.5071C17.2623 28.459 21.0866 31.434 24.4843 34.3545C24.5548 34.415 24.6433 34.4499 24.7501 34.4502C24.8569 34.4505 24.9457 34.4159 25.0166 34.3556C30.2485 29.9015 39.8775 23.5722 42.421 17.2826C43.1295 15.5308 43.3564 13.1915 42.6845 11.418C42.45 10.7994 37.9472 12.6293 38.1794 12.2298C38.4525 11.7599 47.1609 8.95241 46.9977 5.86183C46.9089 4.18149 43.5368 3.41497 38.0753 4.81079Z" fill="#FF715B"/>
<path d="M127.834 8.82479L127.905 8.84707C128.348 8.99445 128.672 9.25549 128.84 9.56166C129.01 9.87069 129.021 10.2266 128.836 10.5567C128.42 11.3545 127.932 12.3196 127.397 13.3749C125.448 17.2265 122.889 22.28 121.044 24.7891C120.904 25.0404 120.677 25.2455 120.398 25.3871C120.114 25.5317 119.777 25.6122 119.424 25.6122C119.061 25.6122 118.721 25.5322 118.434 25.39C118.148 25.2466 117.918 25.0404 117.778 24.7891C116.237 22.6937 114.914 19.9735 113.59 17.2529C112.44 14.8873 111.289 12.5215 109.995 10.5659C109.819 10.2328 109.836 9.87297 110.007 9.56109C110.177 9.25092 110.501 8.98588 110.939 8.84079L110.945 8.83965C111.398 8.69513 111.876 8.70655 112.291 8.83451C112.713 8.96531 113.07 9.21836 113.263 9.55081L119.424 20.7997C120.095 19.5764 120.796 18.3355 121.501 17.0877C122.928 14.5634 124.37 12.0111 125.607 9.51996C125.79 9.20637 126.132 8.96703 126.533 8.83965C126.936 8.71055 127.403 8.69399 127.834 8.82479Z" fill="#2C2C2C"/>
<path d="M150.297 22.8898H139.056V18.4829H148.719C149.209 18.4829 149.649 18.3355 149.968 18.0962C150.286 17.8563 150.48 17.5238 150.48 17.1519C150.48 16.7892 150.283 16.4534 149.962 16.2106C149.645 15.9718 149.208 15.8216 148.718 15.8216H139.055V11.4764H150.024C150.516 11.4764 150.957 11.3301 151.274 11.0897C151.592 10.8497 151.786 10.5167 151.786 10.1454C151.786 9.77415 151.592 9.44171 151.273 9.20122C150.955 8.96189 150.515 8.81451 150.025 8.81451H137.295C136.815 8.81451 136.37 8.9636 136.049 9.20637C135.733 9.44513 135.533 9.77587 135.533 10.1454V24.2201C135.533 24.5892 135.732 24.9199 136.049 25.1592C136.37 25.402 136.815 25.5511 137.295 25.5511H150.297C150.789 25.5511 151.229 25.4037 151.546 25.1632C151.864 24.9227 152.059 24.5903 152.059 24.2201C152.059 23.8494 151.865 23.517 151.547 23.2759C151.229 23.0366 150.789 22.8898 150.297 22.8898Z" fill="#2C2C2C"/>
<path d="M79.2403 23.1348C78.8932 22.9378 78.447 22.8367 77.9857 22.8692C77.935 22.8687 77.7997 22.8618 77.6152 22.791C77.3792 22.6996 77.076 22.5099 76.7697 22.1209C76.344 21.5503 75.8623 21.0191 75.339 20.533C74.9548 20.1754 74.5472 19.8429 74.1237 19.5373L74.3597 19.4654C74.644 19.374 74.9155 19.2712 75.1726 19.1632L75.1771 19.1621C76.2615 18.6925 77.0956 18.0562 77.6583 17.2788C78.2179 16.5065 78.5075 15.6 78.5075 14.5838C78.5075 14.1291 78.4644 13.6904 78.3721 13.2728C78.2799 12.8559 78.1362 12.46 77.935 12.0904C77.7619 11.7523 77.5516 11.4358 77.3044 11.1456C77.0571 10.856 76.7659 10.5876 76.4317 10.3419C76.0112 10.0249 75.5136 9.74388 74.9586 9.5114C74.4156 9.28463 73.8227 9.10641 73.1981 8.98988C72.3012 8.81566 71.6108 8.81509 71.4966 8.81509H63.418C62.9264 8.81509 62.4856 8.96189 62.1695 9.20237C61.8504 9.44285 61.656 9.7753 61.656 10.1454V24.2407C61.656 24.6034 61.8534 24.9393 62.1748 25.1821C62.4909 25.4208 62.9287 25.5716 63.418 25.5716C63.9057 25.5716 64.3428 25.4214 64.6612 25.1809C64.9826 24.9382 65.18 24.6029 65.18 24.2407V11.4764H71.4974C71.5443 11.4764 71.942 11.4844 72.4585 11.5935C72.7346 11.6517 73.0416 11.7386 73.3403 11.8671C73.58 11.9756 73.7895 12.099 73.971 12.2372C74.1547 12.376 74.3113 12.5308 74.4428 12.7005C74.6243 12.9381 74.7589 13.2129 74.8489 13.5225C74.9412 13.8395 74.9858 14.1936 74.9858 14.5832C74.9858 15.1413 74.8648 15.6 74.61 15.9701C74.3612 16.3323 73.9785 16.6202 73.4492 16.8481C72.9599 17.0566 72.3595 17.2142 71.6501 17.3216C70.928 17.4301 70.0969 17.485 69.1577 17.485C68.7001 17.485 68.2752 17.6135 67.9583 17.8294C67.6437 18.043 67.4335 18.3429 67.3979 18.6885C67.3488 19.0307 67.4743 19.3546 67.7246 19.6099C67.9765 19.8669 68.3553 20.0543 68.8106 20.12L68.8506 20.1263H68.8854C68.9013 20.1263 69.1115 20.1777 69.5138 20.3222C69.7596 20.4107 70.0545 20.5318 70.3789 20.6929L70.382 20.694C71.03 21.0076 71.635 21.3955 72.1916 21.8519C72.7565 22.3146 73.2715 22.8487 73.7343 23.4467C74.1857 24.0396 74.6954 24.4578 75.1915 24.7554C75.6936 25.0564 76.1821 25.2358 76.5814 25.3472L76.5973 25.3506C76.9497 25.4363 77.2665 25.4831 77.5342 25.506C77.9766 25.5442 78.3011 25.5202 78.4372 25.506C78.9136 25.4528 79.3197 25.2529 79.5881 24.9782C79.8558 24.7034 79.9882 24.3504 79.9178 23.9917C79.8483 23.6341 79.5942 23.3348 79.2403 23.1348Z" fill="#2C2C2C"/>
<path d="M173.488 23.2971C173.17 23.0572 172.73 22.9104 172.239 22.9104H162.14V10.1454C162.14 9.7753 161.946 9.44285 161.628 9.2018C161.311 8.96189 160.871 8.81509 160.379 8.81509C159.899 8.81509 159.454 8.96418 159.133 9.20694C158.817 9.44571 158.617 9.77644 158.617 10.146V24.2413C158.617 24.6091 158.816 24.9393 159.134 25.1804C159.457 25.4231 159.9 25.5722 160.379 25.5722H172.239C172.73 25.5722 173.171 25.4248 173.488 25.1855C173.806 24.9456 174 24.6131 174 24.2413C174 23.8694 173.806 23.5364 173.488 23.2971Z" fill="#2C2C2C"/>
<path fill-rule="evenodd" clip-rule="evenodd" d="M98.1305 9.01901C98.4065 9.14868 98.6364 9.33661 98.7786 9.56452C99.7965 11.1366 100.81 12.7131 101.823 14.2902L101.824 14.2915C103.834 17.4192 105.845 20.5494 107.899 23.6524C108.101 23.97 108.116 24.3235 107.973 24.6371C107.831 24.9502 107.53 25.2255 107.102 25.3871L107.064 25.402C106.627 25.5671 106.15 25.5779 105.731 25.4705C105.312 25.3637 104.948 25.137 104.735 24.8268C104.27 24.1257 103.819 23.4143 103.368 22.7041C103.138 22.3416 102.908 21.9792 102.677 21.6188C102.056 21.4943 101.417 21.4223 100.758 21.4046C100.038 21.3852 99.2898 21.4303 98.5154 21.5389C97.791 21.6377 97.0506 21.7885 96.2937 21.9918C95.5382 22.1946 94.7669 22.4511 93.9827 22.7624C93.0684 23.128 92.2434 23.5233 91.5522 23.8866C90.1956 24.5994 89.3645 25.1821 89.3471 25.1952C89.1905 25.3135 88.9977 25.4071 88.792 25.4711C88.5795 25.5368 88.3534 25.5716 88.1379 25.5716C87.9587 25.5716 87.7658 25.5499 87.5753 25.502C87.3991 25.458 87.2282 25.3917 87.0754 25.302C86.7427 25.1135 86.5143 24.8445 86.4205 24.5509C86.3275 24.2596 86.3638 23.9425 86.5551 23.6535L95.6123 9.55253C95.7696 9.32861 95.998 9.14297 96.271 9.01501C96.5455 8.88706 96.8601 8.81509 97.1913 8.81509C97.5263 8.81509 97.853 8.88877 98.1305 9.01901ZM97.8575 18.929C98.4807 18.8456 99.0947 18.7873 99.7034 18.7611C100.072 18.7451 100.438 18.7405 100.801 18.7491L97.1943 13.1786L92.6253 20.3108C93.4367 19.9955 94.2534 19.7264 95.0686 19.5048C96.0093 19.2489 96.9433 19.0575 97.8545 18.9301L97.8575 18.929Z" fill="#2C2C2C"/>
</svg>
