<svg width="22" height="14" viewBox="0 0 22 14" fill="none" xmlns="http://www.w3.org/2000/svg">
<path d="M19 0H3C1.35 0 0 1.01973 0 2.26608V11.3304C0 12.5767 1.35 13.5965 3 13.5965H19C20.65 13.5965 22 12.5767 22 11.3304V2.26608C22 1.01973 20.65 0 19 0ZM3 1.51072H19C19.39 1.51072 19.72 1.68445 19.89 1.93372L11 6.63205L2.11 1.93372C2.28 1.68445 2.61 1.51072 3 1.51072ZM19 12.0857H3C2.45 12.0857 2 11.7458 2 11.3304V3.71637L10.43 8.17299C10.6 8.26363 10.8 8.30895 11 8.30895C11.2 8.30895 11.4 8.26363 11.57 8.17299L20 3.71637V11.3304C20 11.7458 19.55 12.0857 19 12.0857Z" fill="#FF715B"/>
</svg>
