<svg width="23" height="18" viewBox="0 0 23 18" fill="none" xmlns="http://www.w3.org/2000/svg">
<path d="M18.8651 17.3188C18.7851 17.3188 18.6951 17.3188 18.6151 17.3113C15.3851 17.0469 12.2451 16.2009 9.53508 14.8715C7.01508 13.6629 4.83508 12.0162 3.23508 10.1127C1.47508 8.05814 0.355079 5.67876 0.0150791 3.23895C-0.0649209 2.61955 0.175079 2.03037 0.695079 1.5696C1.20508 1.10128 1.93508 0.821798 2.72508 0.761369C2.81508 0.753816 2.90508 0.753816 2.99508 0.753816H5.99508C6.00508 0.753816 6.01508 0.753816 6.02508 0.753816C7.50508 0.753816 8.77508 1.58471 8.98508 2.70264C9.10508 3.37491 9.32508 4.03207 9.63508 4.66658C10.0451 5.48992 9.78508 6.42656 8.95508 7.05351L8.23508 7.59737C9.41508 8.98723 10.9751 10.1731 12.8251 11.0645L13.5451 10.5206C14.3751 9.90122 15.6251 9.69727 16.7151 10.007C17.5451 10.2411 18.4251 10.4073 19.3051 10.4904C20.8151 10.649 21.9251 11.6385 21.8951 12.7791V15.0377C21.8951 15.6419 21.5851 16.2085 21.0251 16.639C20.4651 17.0696 19.7051 17.3037 18.9051 17.3113C18.8851 17.3188 18.8751 17.3188 18.8651 17.3188ZM6.01508 2.26453C6.00508 2.26453 6.00508 2.26453 6.01508 2.26453H2.99508C2.63508 2.28719 2.39508 2.37784 2.22508 2.53646C2.05508 2.68754 1.97508 2.88393 1.99508 3.08788C2.30508 5.28597 3.31508 7.43119 4.91508 9.29693C6.36508 11.0191 8.33508 12.5072 10.6151 13.6025C13.0751 14.8111 15.9151 15.5664 18.8151 15.8081C19.1651 15.8383 19.4051 15.7326 19.5951 15.5891C19.7851 15.4456 19.8851 15.2567 19.8851 15.0528V12.7867C19.8851 12.7791 19.8851 12.7716 19.8851 12.764C19.8951 12.3788 19.5251 12.054 19.0251 12.0011C18.0051 11.9029 16.9851 11.7065 16.0051 11.4346C15.6351 11.3288 15.2251 11.3968 14.9451 11.6008L13.6751 12.5601C13.3551 12.8018 12.8651 12.8471 12.4751 12.6809C9.81508 11.5403 7.61508 9.871 6.10508 7.8693C5.88508 7.57471 5.94508 7.20458 6.26508 6.96287L7.53508 6.00356C7.80508 5.78451 7.89508 5.47481 7.75508 5.19533C7.38508 4.45508 7.13508 3.68461 6.99508 2.90659C6.93508 2.54402 6.50508 2.26453 6.01508 2.26453ZM17.8851 7.51428C17.4151 7.51428 16.9951 7.26501 16.9051 6.90244C16.5951 5.68631 15.3551 4.74967 13.7451 4.5155C13.2051 4.43242 12.8451 4.03963 12.9551 3.63173C13.0651 3.22384 13.5851 2.95191 14.1251 3.035C16.5351 3.39002 18.3951 4.79499 18.8651 6.6154C18.9751 7.0233 18.6151 7.42364 18.0751 7.49917C18.0051 7.50673 17.9451 7.51428 17.8851 7.51428ZM21.8851 7.50673C21.3851 7.50673 20.9451 7.21969 20.8951 6.83446C20.4751 4.00941 17.5651 1.81887 13.8251 1.50162C13.2751 1.4563 12.8851 1.07862 12.9451 0.670726C13.0051 0.255279 13.5151 -0.0468651 14.0451 0.00601009C18.7251 0.398797 22.3551 3.14075 22.8751 6.66828C22.9351 7.08373 22.5451 7.45385 21.9951 7.50673C21.9551 7.50673 21.9151 7.50673 21.8851 7.50673Z" fill="#FF715B"/>
</svg>
