<svg width="19" height="15" viewBox="0 0 19 15" fill="none" xmlns="http://www.w3.org/2000/svg">
<path fill-rule="evenodd" clip-rule="evenodd" d="M4.47277 3.72873C4.47277 5.91927 6.64549 7.6978 9.31822 7.6978C11.9909 7.6978 14.1637 5.91927 14.1637 3.72873C14.1637 1.60685 12.0819 0 9.31822 0C6.55459 0 4.47277 1.60685 4.47277 3.72873ZM5.9364 3.73559C5.9364 2.21114 7.35459 1.10557 9.31822 1.10557C11.2455 1.10557 12.7 2.23174 12.7 3.73559C12.7 5.32185 11.1819 6.60596 9.31822 6.60596C7.45459 6.60596 5.9364 5.31498 5.9364 3.73559Z" fill="#2C2C2C"/>
<path fill-rule="evenodd" clip-rule="evenodd" d="M0 14.0497C0 14.3519 0.327273 14.5991 0.727273 14.5991H17.9091C18.3091 14.5991 18.6364 14.3519 18.6364 14.0497C18.6364 10.1493 15.3273 8 9.31818 8C3.30909 8 0 10.1493 0 14.0497ZM17.1545 13.4935H1.49091C1.77273 10.582 4.4 9.0987 9.31818 9.0987C14.2364 9.0987 16.8636 10.5751 17.1545 13.4935Z" fill="#2C2C2C"/>
</svg>
